<?xml version="1.0" encoding="UTF-8"?>
<svg id="Layer_1" xmlns="http://www.w3.org/2000/svg" version="1.1" viewBox="0 0 150 40">
  <!-- Generator: Adobe Illustrator 29.0.0, SVG Export Plug-In . SVG Version: 2.1.0 Build 186)  -->
  <defs>
    <style>
      .st0 {
        fill: #fdab2f;
      }
    </style>
  </defs>
  <path class="st0" d="M138,0l-10.1,21.2L117.8,0h-12v28.6h-19.7v-3.5h11.4v-10.2h-11.4v-3.5h16.1V0h-29.6v8c-1.8-2.4-4.1-4.2-6.9-5.6-3.3-1.6-7.2-2.4-11.6-2.4h-15.3v24.8L28.8,0h-12.8L0,40h13.9l2.6-7h11.9l2.6,7h23.1c6.9,0,12.3-1.7,16.2-5.1.9-.8,1.7-1.6,2.3-2.6v7.6h45.8v-14.8l7.4,14.8h4.3l7.4-14.8v14.8h12.5V0h-12ZM19.4,23.1l3-9.2,3,9.2h-5.9ZM55,27.4h-2.7v-14.8h2.7c2.4,0,4.2.6,5.5,1.9,1.3,1.2,1.9,3,1.9,5.3,0,5.1-2.5,7.6-7.4,7.6Z"/>
</svg>